# xmcd
#
# Track frame offsets: 
#        150
#        16247
#        33975
#        53885
#        74440
#        92125
#        118642
#        140430
#        161827
#        180125
#        204795
#
# Disc length: 3020 seconds
#
# Revision: 2
# Processed by: cddbd v1.5.2PL0 Copyright (c) Steve Scherf et al.
# Submitted via: ExactAudioCopy v1.0b1
#
DISCID=8b0bca0b
DTITLE=Rodney Crowell - The Outsider
DYEAR=2005
DGENRE=Country
TTITLE0=Say You Love Me
TTITLE1=The Obscenity Prayer
TTITLE2=The Outsider
TTITLE3=Dancin' Circles Round the Sun (Epictetus Speaks)
TTITLE4=Beautiful Despair
TTITLE5=Don't Get Me Started
TTITLE6=Ignorance is the Enemy
TTITLE7=Glasgow Girl
TTITLE8=Things That Go Bump in the Day
TTITLE9=Shelter From the Storm
TTITLE10=We Can't Turn Back Now
EXTD=
EXTT0=
EXTT1=
EXTT2=
EXTT3=
EXTT4=
EXTT5=
EXTT6=
EXTT7=
EXTT8=
EXTT9=
EXTT10=
PLAYORDER=
